<?xml version="1.0" standalone="no"?>
<!DOCTYPE svg PUBLIC "-//W3C//DTD SVG 20010904//EN"
 "http://www.w3.org/TR/2001/REC-SVG-20010904/DTD/svg10.dtd">
<svg version="1.0" xmlns="http://www.w3.org/2000/svg"
 width="512.000000pt" height="512.000000pt" viewBox="0 0 512.000000 512.000000"
 preserveAspectRatio="xMidYMid meet">
<metadata>
Created by potrace 1.11, written by Peter Selinger 2001-2013
</metadata>
<g transform="translate(0.000000,512.000000) scale(0.100000,-0.100000)"
fill="#000000" stroke="none">
<path d="M4469 4617 c-95 -40 -120 -61 -312 -256 l-186 -190 -455 -1 -455 0
-3 122 -3 123 -112 3 -112 3 -3 92 -3 92 -275 0 -275 0 -3 -92 -3 -93 -107 0
c-71 0 -112 -4 -120 -12 -8 -8 -12 -50 -12 -125 l0 -113 -743 0 c-565 0 -746
-3 -755 -12 -8 -8 -12 -53 -12 -135 0 -92 -3 -123 -13 -123 -14 0 -407 -390
-407 -405 0 -5 17 -26 37 -47 l37 -38 -22 -23 c-12 -13 -22 -29 -22 -35 0 -7
88 -124 195 -262 l195 -250 0 -399 c0 -390 0 -399 -20 -404 -26 -7 -26 -37 0
-37 17 0 20 -7 20 -40 l0 -39 -102 -3 c-89 -3 -103 -5 -106 -20 -3 -16 7 -18
102 -18 l106 0 2 -382 3 -383 658 -3 c361 -1 657 -5 657 -8 0 -7 -402 -517
-438 -556 -25 -27 -25 -28 -7 -48 10 -11 24 -19 31 -18 17 4 524 647 524 664
0 7 -4 15 -9 19 -6 3 -312 5 -680 5 l-671 0 0 50 0 50 935 0 c514 0 935 -2
935 -5 0 -3 -124 -173 -275 -378 -273 -369 -274 -372 -254 -389 12 -10 25 -18
29 -18 4 0 135 173 291 385 156 212 286 382 290 377 3 -4 131 -177 284 -384
152 -208 281 -378 285 -378 4 0 17 8 28 18 21 17 18 21 -258 395 l-279 377
939 0 940 0 0 -50 0 -50 -671 0 c-368 0 -674 -2 -680 -5 -5 -4 -9 -12 -9 -19
0 -15 491 -644 516 -661 10 -7 19 -4 34 10 l20 20 -233 295 -233 295 661 5
660 5 3 548 2 547 260 0 c253 0 260 1 260 20 0 19 -7 20 -260 20 l-260 0 0
453 0 452 92 80 c164 142 376 344 396 377 45 75 36 148 -27 219 l-38 43 33 48
c159 232 77 551 -174 675 -73 36 -81 38 -191 41 -103 2 -122 0 -172 -21z m250
-28 c79 -18 150 -60 211 -125 71 -76 101 -147 108 -256 6 -92 -21 -191 -69
-257 l-31 -44 -293 293 -293 293 23 19 c92 72 231 103 344 77z m-1959 -104 c0
-62 -1 -65 -24 -65 -21 0 -25 5 -28 38 l-3 37 -157 3 -158 3 0 -41 c0 -38 -2
-40 -30 -40 l-30 0 0 65 0 65 215 0 215 0 0 -65z m1967 -783 c-148 -148 -172
-169 -175 -149 -2 19 27 54 148 173 l151 149 -266 265 -265 265 -118 -118
c-86 -85 -124 -117 -142 -117 -20 0 -2 23 115 143 l140 143 292 -291 293 -290
-173 -173z m-2337 623 l0 -24 -117 -3 -118 -3 0 -35 0 -35 393 -3 392 -2 0 40
0 40 -115 0 -115 0 0 25 0 25 145 0 145 0 0 -90 0 -90 -450 0 -450 0 0 90 0
90 145 0 145 0 0 -25z m1352 -242 c17 -15 19 -15 31 1 10 13 25 16 70 14 l58
-3 -36 -42 c-36 -42 -38 -43 -98 -43 -47 0 -58 3 -49 12 7 7 12 17 12 24 0 20
-32 26 -49 9 -14 -13 -13 -16 4 -29 18 -13 -166 -15 -1537 -16 l-1558 0 0 45
0 45 1567 0 c1449 0 1568 -1 1585 -17z m238 -28 c-29 -30 -53 -45 -69 -45 -24
0 -23 2 19 45 29 30 53 45 69 45 24 0 23 -2 -19 -45z m-399 -137 l19 -23 19
23 c16 18 29 22 82 22 l63 0 -29 -30 c-26 -27 -34 -30 -95 -30 -38 0 -71 5
-78 12 -9 9 -15 9 -24 0 -9 -9 -345 -12 -1452 -12 l-1440 0 -28 -27 -28 -27 0
57 0 57 1486 0 1486 0 19 -22z m289 18 c0 -11 -19 -15 -25 -6 -3 5 1 10 9 10
9 0 16 -2 16 -4z m-50 -41 c11 -13 8 -15 -13 -15 -19 0 -25 4 -21 15 4 8 10
15 14 15 4 0 13 -7 20 -15z m-3302 -73 c2 -15 -1 -20 -10 -17 -8 3 -77 -59
-167 -149 -154 -154 -155 -155 -136 -176 14 -16 16 -23 7 -32 -9 -9 -19 -5
-42 17 l-31 29 178 178 c98 98 182 177 188 175 5 -2 11 -13 13 -25z m4489 -66
c10 -19 13 -43 10 -69 -7 -48 -53 -98 -297 -319 l-165 -149 -3 121 -3 121 193
189 193 188 28 -26 c16 -15 36 -40 44 -56z m-4391 -5 c-23 -23 -26 -23 -26 -6
0 10 10 30 23 43 19 21 22 21 25 7 2 -10 -8 -29 -22 -44z m2732 -143 c8 -8 15
-8 26 1 8 7 34 11 60 9 l46 -3 -87 -116 c-141 -185 -196 -274 -184 -296 14
-26 445 -453 457 -453 29 0 295 200 540 403 l34 29 0 -60 c0 -41 -5 -63 -15
-72 -8 -7 -15 -18 -15 -25 0 -7 7 -18 15 -25 13 -11 15 -66 15 -381 l0 -369
-600 0 c-593 0 -600 0 -600 -20 0 -20 7 -20 600 -20 l601 0 -3 -277 c-3 -260
-4 -280 -23 -305 -11 -14 -33 -35 -50 -45 -29 -17 -96 -18 -1637 -18 l-1607 0
-28 21 c-61 45 -73 77 -73 190 l0 104 520 0 c513 0 520 0 520 20 0 20 -7 20
-519 20 l-519 0 -1 267 -2 266 59 -74 c32 -41 107 -136 167 -212 l108 -139 41
41 41 41 45 -45 46 -46 66 35 c139 72 280 53 405 -57 18 -16 39 -27 47 -24 7
3 34 -16 62 -44 l48 -49 153 0 c118 0 153 3 153 13 0 7 -52 67 -115 134 -80
84 -113 126 -109 137 4 10 -7 31 -31 57 -63 70 -90 141 -90 235 0 73 4 88 37
155 l37 74 -44 45 -45 46 37 37 c23 22 34 40 28 45 -6 5 -224 175 -485 377
-261 202 -479 372 -484 377 -6 4 519 8 1165 8 877 0 1178 -3 1187 -12z m235 0
c-6 -7 -44 -56 -85 -108 -41 -52 -103 -135 -137 -185 l-62 -89 187 -187 c156
-156 191 -186 205 -178 38 20 260 190 378 290 182 153 171 145 171 117 0 -17
-32 -50 -129 -131 -144 -121 -333 -266 -399 -304 l-44 -26 -204 204 c-112 112
-204 208 -204 214 1 15 92 147 194 279 71 92 95 116 114 116 18 0 22 -3 15
-12z m581 -65 c72 -75 76 -80 76 -125 0 -27 -1 -48 -3 -48 -1 0 -58 56 -127
125 l-125 125 52 0 c52 0 53 0 127 -77z m-2735 -318 l489 -380 -46 -47 c-31
-32 -49 -45 -56 -38 -7 7 2 22 24 45 20 21 30 38 24 43 -5 5 -222 174 -481
376 -260 202 -476 372 -479 378 -28 45 104 -50 525 -377z m-789 302 c0 -8 -11
-19 -25 -25 -22 -10 -25 -9 -25 7 0 17 12 25 43 30 4 0 7 -5 7 -12z m3816 -86
l-26 -26 0 25 c0 13 10 35 23 48 l22 24 3 -22 c2 -14 -6 -33 -22 -49z m-3260
-234 c161 -124 306 -243 322 -263 56 -68 61 -179 12 -259 -31 -50 -205 -214
-245 -231 -70 -29 -163 -18 -226 27 -39 28 -239 287 -239 310 0 11 2 19 4 19
3 0 57 -68 121 -150 84 -108 128 -156 155 -170 47 -24 126 -26 175 -6 45 19
200 169 233 226 31 53 35 135 9 186 -21 41 -31 49 -390 328 -219 171 -307 244
-307 259 0 17 5 15 43 -15 23 -19 173 -136 333 -261z m-690 192 c-20 -50 -20
-122 0 -164 8 -19 14 -44 12 -57 -3 -19 -8 -12 -32 35 -25 51 -28 65 -24 122
4 43 13 76 29 102 18 29 25 34 27 20 2 -10 -3 -36 -12 -58z m-259 -17 c-15
-15 -27 -32 -27 -36 0 -4 68 -95 151 -202 102 -132 149 -200 147 -214 -2 -15
-46 35 -168 191 -91 117 -167 217 -169 222 -6 15 72 88 83 77 7 -7 1 -19 -17
-38z m4211 -246 l-23 -18 -3 117 c-2 111 -1 119 20 142 l23 25 3 -124 c3 -118
2 -124 -20 -142z m-3818 -106 l0 -25 -25 30 c-13 17 -24 41 -25 55 l0 25 25
-30 c13 -16 24 -41 25 -55z m3840 -360 l0 -420 -25 0 c-24 0 -25 2 -25 65 0
51 3 65 15 65 9 0 15 9 15 25 0 16 -6 25 -15 25 -13 0 -15 41 -15 307 0 301 0
307 22 330 12 13 23 23 25 23 2 0 3 -189 3 -420z m-3840 106 c-1 -19 -3 -19
-25 7 -14 15 -25 40 -25 55 l0 26 25 -34 c14 -19 25 -43 25 -54z m0 -412 c0
-313 -1 -322 -20 -327 -26 -7 -26 -27 0 -34 16 -4 20 -14 20 -44 0 -35 -3 -39
-25 -39 l-25 0 0 413 1 412 24 -30 25 -30 0 -321z m1273 284 c-30 -31 -40 -30
-23 2 10 19 8 26 -15 50 -38 40 -9 46 32 7 l33 -31 -27 -28z m-34 -128 c-22
-95 5 -203 77 -303 l36 -50 -75 -75 -75 -75 -57 41 c-31 23 -80 49 -108 58
-56 19 -150 24 -207 11 l-35 -7 23 22 c19 20 32 23 100 22 87 -1 139 -17 226
-71 l58 -36 55 55 55 55 -35 54 c-50 79 -70 142 -71 230 -1 63 3 81 18 98 11
12 20 20 22 18 2 -1 -2 -23 -7 -47z m-880 -186 c85 -109 156 -201 158 -203 2
-3 21 12 42 33 60 59 74 35 15 -25 -27 -27 -51 -49 -55 -49 -3 0 -81 96 -173
214 -109 140 -166 222 -166 238 1 20 2 21 13 7 7 -8 81 -105 166 -215z m3483
-559 l3 -435 -1950 0 -1950 0 3 270 3 270 24 0 25 0 0 -240 0 -240 1895 0
1895 0 0 405 0 405 25 0 25 0 2 -435z m-3166 354 c18 -17 26 -19 42 -10 35 19
37 12 7 -19 l-29 -30 -33 32 c-18 17 -30 35 -27 40 8 12 16 10 40 -13z m2954
-553 c0 -2 -8 -10 -17 -17 -16 -13 -17 -12 -4 4 13 16 21 21 21 13z m-3323
-82 c-3 -3 -12 -4 -19 -1 -8 3 -5 6 6 6 11 1 17 -2 13 -5z m3190 0 c-3 -3 -12
-4 -19 -1 -8 3 -5 6 6 6 11 1 17 -2 13 -5z"/>
<path d="M4525 4547 c-36 -12 -103 -44 -115 -54 -5 -5 512 -523 522 -523 4 0
19 22 33 49 22 44 28 68 39 150 6 47 -15 136 -46 193 -64 120 -176 190 -313
195 -48 2 -96 -3 -120 -10z"/>
<path d="M3290 3584 c-11 -12 -10 -18 3 -32 16 -15 18 -15 34 0 13 14 14 20 3
32 -7 9 -16 16 -20 16 -4 0 -13 -7 -20 -16z"/>
<path d="M3251 3527 c-26 -26 7 -60 35 -36 19 15 18 22 -5 36 -14 9 -21 9 -30
0z"/>
<path d="M3200 3455 c-7 -9 -11 -17 -9 -18 2 -1 12 -8 21 -15 14 -11 18 -10
28 9 10 17 9 23 -1 30 -19 12 -25 11 -39 -6z"/>
<path d="M3160 3394 c-11 -12 -10 -18 4 -32 16 -16 18 -16 31 2 11 14 12 23 4
33 -15 17 -24 16 -39 -3z"/>
<path d="M3121 3337 c-26 -26 7 -60 35 -36 19 15 18 22 -5 36 -14 9 -21 9 -30
0z"/>
<path d="M3010 3011 l-194 -57 -78 -310 c-42 -170 -78 -319 -78 -331 0 -47 38
-20 185 127 l149 149 -3 46 c-2 39 2 50 28 75 40 41 106 42 145 4 39 -39 37
-105 -4 -146 -25 -24 -37 -29 -70 -27 -40 3 -43 1 -195 -151 -85 -85 -155
-160 -155 -167 0 -23 60 -12 364 65 l299 77 59 205 58 205 -147 147 c-81 82
-152 148 -158 147 -5 0 -98 -27 -205 -58z m329 -123 l127 -131 -51 -176 -51
-176 -260 -67 c-142 -37 -261 -67 -264 -67 -2 -1 45 49 105 109 96 96 114 110
143 110 83 0 152 68 152 150 0 165 -227 209 -285 56 -10 -25 -15 -54 -12 -65
3 -14 -24 -47 -109 -132 l-113 -112 67 263 67 264 175 52 c96 28 177 52 179
53 2 0 61 -58 130 -131z"/>
<path d="M3030 2926 l-144 -43 -43 -169 c-23 -93 -43 -175 -43 -183 0 -7 21
11 48 40 33 37 50 66 58 100 21 93 82 150 169 157 130 11 226 -100 201 -233
-13 -67 -107 -144 -176 -145 -17 0 -42 -16 -75 -50 -27 -27 -45 -50 -40 -50 6
0 86 20 179 43 l169 43 45 158 45 157 -109 110 c-60 60 -115 109 -124 108 -8
-1 -80 -20 -160 -43z"/>
<path d="M3570 2405 c0 -20 5 -25 25 -25 20 0 25 5 25 25 0 20 -5 25 -25 25
-20 0 -25 -5 -25 -25z"/>
<path d="M3650 2405 c0 -20 5 -25 25 -25 20 0 25 5 25 25 0 20 -5 25 -25 25
-20 0 -25 -5 -25 -25z"/>
<path d="M3724 2415 c-8 -20 4 -35 27 -35 14 0 19 7 19 25 0 18 -5 25 -20 25
-11 0 -23 -7 -26 -15z"/>
<path d="M3800 2405 c0 -20 5 -25 25 -25 20 0 25 5 25 25 0 20 -5 25 -25 25
-20 0 -25 -5 -25 -25z"/>
<path d="M3880 2405 c0 -22 4 -26 23 -23 14 2 22 10 22 23 0 13 -8 21 -22 23
-19 3 -23 -1 -23 -23z"/>
<path d="M3954 2415 c-8 -20 4 -35 27 -35 14 0 19 7 19 25 0 18 -5 25 -20 25
-11 0 -23 -7 -26 -15z"/>
<path d="M4030 2405 c0 -20 5 -25 25 -25 20 0 25 5 25 25 0 20 -5 25 -25 25
-20 0 -25 -5 -25 -25z"/>
<path d="M4110 2405 c0 -22 4 -26 23 -23 14 2 22 10 22 23 0 13 -8 21 -22 23
-19 3 -23 -1 -23 -23z"/>
<path d="M4184 2415 c-8 -20 4 -35 27 -35 14 0 19 7 19 25 0 18 -5 25 -20 25
-11 0 -23 -7 -26 -15z"/>
<path d="M857 2033 c-14 -13 -6 -33 13 -33 13 0 20 7 20 20 0 19 -20 27 -33
13z"/>
<path d="M915 2031 c-9 -16 3 -31 26 -31 14 0 19 6 17 17 -4 20 -33 29 -43 14z"/>
<path d="M980 2020 c0 -13 7 -20 20 -20 13 0 20 7 20 20 0 13 -7 20 -20 20
-13 0 -20 -7 -20 -20z"/>
<path d="M3197 4324 c-4 -4 -7 -20 -7 -36 0 -25 3 -28 36 -28 34 0 35 1 32 33
-2 26 -8 33 -28 35 -14 2 -29 0 -33 -4z"/>
<path d="M3307 4324 c-4 -4 -7 -20 -7 -36 0 -25 3 -28 36 -28 34 0 35 1 32 33
-2 26 -8 33 -28 35 -14 2 -29 0 -33 -4z"/>
<path d="M3417 4324 c-4 -4 -7 -20 -7 -36 0 -25 3 -28 36 -28 34 0 35 1 32 33
-2 26 -8 33 -28 35 -14 2 -29 0 -33 -4z"/>
<path d="M3527 4324 c-4 -4 -7 -20 -7 -36 0 -25 3 -28 36 -28 34 0 35 1 32 33
-2 26 -8 33 -28 35 -14 2 -29 0 -33 -4z"/>
<path d="M3630 4296 c0 -35 1 -36 36 -36 34 0 35 1 32 33 -3 28 -7 32 -35 35
-32 3 -33 2 -33 -32z"/>
<path d="M3747 4324 c-4 -4 -7 -20 -7 -36 0 -27 3 -29 33 -26 28 3 32 6 32 33
0 25 -5 31 -25 33 -14 2 -29 0 -33 -4z"/>
<path d="M3850 4295 c0 -35 1 -36 33 -33 28 3 32 6 32 33 0 27 -4 30 -32 33
-32 3 -33 2 -33 -33z"/>
<path d="M4570 2405 c0 -22 4 -26 23 -23 14 2 22 10 22 23 0 13 -8 21 -22 23
-19 3 -23 -1 -23 -23z"/>
<path d="M4640 2405 c0 -20 5 -25 25 -25 20 0 25 5 25 25 0 20 -5 25 -25 25
-20 0 -25 -5 -25 -25z"/>
<path d="M4720 2405 c0 -20 5 -25 25 -25 20 0 25 5 25 25 0 20 -5 25 -25 25
-20 0 -25 -5 -25 -25z"/>
<path d="M4800 2405 c0 -22 4 -26 23 -23 14 2 22 10 22 23 0 13 -8 21 -22 23
-19 3 -23 -1 -23 -23z"/>
<path d="M4870 2405 c0 -20 5 -25 25 -25 20 0 25 5 25 25 0 20 -5 25 -25 25
-20 0 -25 -5 -25 -25z"/>
<path d="M4950 2405 c0 -20 5 -25 25 -25 20 0 25 5 25 25 0 20 -5 25 -25 25
-20 0 -25 -5 -25 -25z"/>
<path d="M5030 2405 c0 -18 5 -25 20 -25 15 0 20 7 20 25 0 18 -5 25 -20 25
-15 0 -20 -7 -20 -25z"/>
<path d="M5100 2405 c0 -14 5 -25 10 -25 6 0 10 11 10 25 0 14 -4 25 -10 25
-5 0 -10 -11 -10 -25z"/>
<path d="M170 2020 c0 -13 7 -20 20 -20 13 0 20 7 20 20 0 13 -7 20 -20 20
-13 0 -20 -7 -20 -20z"/>
<path d="M237 2033 c-14 -13 -6 -33 13 -33 13 0 20 7 20 20 0 19 -20 27 -33
13z"/>
<path d="M295 2031 c-9 -16 3 -31 26 -31 14 0 19 6 17 17 -4 20 -33 29 -43 14z"/>
<path d="M360 2021 c0 -15 6 -21 21 -21 14 0 19 5 17 17 -5 26 -38 29 -38 4z"/>
<path d="M420 2020 c0 -13 7 -20 20 -20 13 0 20 7 20 20 0 13 -7 20 -20 20
-13 0 -20 -7 -20 -20z"/>
<path d="M2049 1172 c-20 -26 -144 -186 -277 -355 -133 -170 -242 -313 -242
-318 0 -5 64 -9 148 -9 l147 0 230 312 c127 171 247 335 268 365 l39 53 -139
0 -138 -1 -36 -47z"/>
<path d="M2717 1207 c4 -7 125 -172 268 -365 l260 -352 147 0 c83 0 148 4 148
9 0 5 -125 168 -278 363 l-278 353 -137 3 c-114 2 -137 0 -130 -11z"/>
<path d="M1210 985 c0 -32 2 -35 30 -35 28 0 30 3 30 35 0 32 -2 35 -30 35
-28 0 -30 -3 -30 -35z"/>
<path d="M1314 1006 c-12 -31 1 -51 34 -54 31 -3 32 -2 32 32 0 33 -2 36 -30
36 -17 0 -33 -6 -36 -14z"/>
<path d="M1424 1006 c-12 -31 1 -51 34 -54 31 -3 32 -2 32 32 0 33 -2 36 -30
36 -17 0 -33 -6 -36 -14z"/>
<path d="M1534 1006 c-12 -31 1 -51 34 -54 31 -3 32 -2 32 32 0 33 -2 36 -30
36 -17 0 -33 -6 -36 -14z"/>
<path d="M1465 890 c-17 -19 -17 -20 6 -39 31 -26 34 -26 52 3 15 22 15 25 -2
40 -23 21 -34 20 -56 -4z"/>
<path d="M1397 806 c-15 -22 -15 -25 2 -40 23 -21 34 -20 57 5 18 20 18 21 -6
40 -32 24 -35 24 -53 -5z"/>
<path d="M1327 724 c-18 -24 -18 -25 5 -44 23 -19 23 -19 47 5 l25 24 -25 20
c-30 25 -30 25 -52 -5z"/>
<path d="M1257 642 c-22 -24 -22 -29 9 -49 25 -16 27 -16 44 8 17 22 17 25 3
41 -20 23 -36 23 -56 0z"/>
</g>
</svg>
